Coordinates
version=1
nRows=26
nColumns=24
inDegrees=yes

Units are S.I. units (second, meters, Newtons, ...)
Angles are in degrees.

endheader
time	pelvis_tilt	pelvis_list	pelvis_rotation	pelvis_tx	pelvis_ty	pelvis_tz	hip_flexion_r	hip_adduction_r	hip_rotation_r	knee_angle_r	ankle_angle_r	subtalar_angle_r	mtp_angle_r	hip_flexion_l	hip_adduction_l	hip_rotation_l	knee_angle_l	ankle_angle_l	subtalar_angle_l	mtp_angle_l	lumbar_extension	lumbar_bending	lumbar_rotation
      4.27000000	      3.69726015	      3.78646718	      9.47100290	      0.23012390	      0.87334311	     -0.13768481	     23.17130917	     -6.92538970	     -0.95790130	    -11.87956313	     11.41809365	      4.43152670	      0.00000000	    -31.78773861	      2.57957697	     11.41869586	     -6.66204728	      5.61746705	    -15.12265959	      0.00000000	    -27.43315190	      4.81939832	    -15.02277191
      4.28000000	      3.43218728	      3.49187297	      9.08790656	      0.24894387	      0.87178406	     -0.13531523	     24.91054692	     -6.14633464	     -0.31027792	    -16.07235437	     11.45686399	      5.05369419	      0.00000000	    -30.40497435	      2.26772206	      8.45700373	    -10.13670798	      5.29781909	    -11.46802151	      0.00000000	    -26.95393740	      4.98142145	    -14.99219272
      4.29000000	      3.27217208	      3.11803931	      8.73958569	      0.26774404	      0.87050657	     -0.13295427	     26.39731704	     -5.23953729	      0.38276020	    -20.14344605	     11.78321033	      5.28903290	      0.00000000	    -28.84970629	      1.74139212	      5.90949720	    -13.94996912	      4.11735865	     -8.56295689	      0.00000000	    -26.58164168	      5.24791433	    -14.93597420
      4.30000000	      3.26627738	      2.65980735	      8.51570163	      0.28641629	      0.86961718	     -0.13080588	     27.48161406	     -4.27986284	      0.79169340	    -23.89990079	     12.51197475	      5.34132688	      0.00000000	    -27.17751803	      1.00136155	      3.98740037	    -18.06290252	      2.09436551	     -6.55035970	      0.00000000	    -26.37125884	      5.66818701	    -14.91605205
      4.31000000	      3.45835386	      2.09445843	      8.46269055	      0.30486515	      0.86919520	     -0.12892564	     28.00817892	     -3.26834037	      0.91211349	    -27.13528693	     13.68558474	      5.17060402	      0.00000000	    -25.40089801	      0.02657788	      2.57217697	    -22.48344611	     -0.39750895	     -5.07332575	      0.00000000	    -26.37438077	      6.27756223	    -14.91189979
      4.32000000	      3.74536580	      1.41011351	      8.68969334	      0.32292298	      0.86917373	     -0.12743176	     28.02725932	     -2.28111226	      0.60468344	    -29.71771511	     15.04349578	      4.83533938	      0.00000000	    -23.35020553	     -1.19760004	      1.65307986	    -27.25193128	     -2.96187149	     -3.91084900	      0.00000000	    -26.47060172	      7.10333098	    -15.02214133
      4.33000000	      3.99504686	      0.65722246	      9.18279417	      0.34048502	      0.86937815	     -0.12628763	     27.70120188	     -1.37155102	     -0.04052600	    -31.64713824	     16.56226918	      4.44575469	      0.00000000	    -20.91569873	     -2.54880240	      1.24442199	    -32.27738464	     -5.27216093	     -2.97629840	      0.00000000	    -26.50230834	      8.04914533	    -15.21775140
      4.34000000	      4.12655215	     -0.15747475	      9.92097216	      0.35751837	      0.86974148	     -0.12547329	     27.15202060	     -0.54567258	     -0.99534098	    -32.94517182	     18.15470471	      4.14270306	      0.00000000	    -18.06593627	     -3.94532206	      1.32547168	    -37.41905803	     -6.99891018	     -2.15959902	      0.00000000	    -26.36368359	      9.08355985	    -15.45222671
      4.35000000	      4.11347857	     -1.00948551	     10.83372879	      0.37404279	      0.87029585	     -0.12493690	     26.46232092	      0.20405467	     -2.18645994	    -33.67149385	     19.73910790	      4.01968542	      0.00000000	    -14.85991862	     -5.27745732	      1.81536268	    -42.49282424	     -7.94166327	     -1.42314203	      0.00000000	    -26.02171660	     10.15190942	    -15.68639970
      4.36000000	      4.00208304	     -1.85922262	     11.83553748	      0.39014755	      0.87121539	     -0.12463527	     25.62398040	      0.89366681	     -3.51082838	    -33.88448333	     21.23775074	      4.09333299	      0.00000000	    -11.46022188	     -6.43759617	      2.61041898	    -47.28788006	     -8.07040196	     -0.76626263	      0.00000000	    -25.53353834	     11.19654280	    -15.87552270
      4.37000000	      3.84769681	     -2.65331553	     12.83099162	      0.40594395	      0.87268017	     -0.12449905	     24.61497600	      1.52904260	     -4.87270051	    -33.65220626	     22.58459339	      4.34118872	      0.00000000	     -8.02800918	     -7.34579041	      3.54583312	    -51.64257054	     -7.44885552	     -0.17888695	      0.00000000	    -24.98091689	     12.13972240	    -15.98881935
      4.38000000	      3.69981032	     -3.34963321	     13.75273140	      0.42154112	      0.87481864	     -0.12449730	     23.40276546	      2.12114890	     -6.17058894	    -33.02797066	     23.73835603	      4.70966118	      0.00000000	     -4.69947826	     -7.96601627	      4.48465643	    -55.45029060	     -6.25142864	      0.32874518	      0.00000000	    -24.44178957	     12.93690955	    -15.98385381
      4.39000000	      3.60157204	     -3.90232667	     14.55580036	      0.43703036	      0.87769275	     -0.12458410	     21.95191347	      2.66844735	     -7.31901546	    -32.05867093	     24.66464867	      5.12833288	      0.00000000	     -1.58561636	     -8.28698219	      5.31582624	    -58.65481367	     -4.65005607	      0.79016352	      0.00000000	    -23.99040512	     13.54010517	    -15.85153110
      4.40000000	      3.57220533	     -4.28537232	     15.22286531	      0.45245302	      0.88124941	     -0.12472619	     20.25993728	      3.16157950	     -8.28067271	    -30.80055236	     25.34645389	      5.51365462	      0.00000000	      1.26106799	     -8.32769276	      5.96514830	    -61.25140206	     -2.86554290	      1.20326063	      0.00000000	    -23.67811385	     13.93111825	    -15.57348162
      4.41000000	      3.51300431	     -4.46524899	     15.68662013	      0.46792304	      0.88524857	     -0.12479556	     18.44171081	      3.57437876	     -8.90687345	    -29.31184157	     25.85507447	      5.87801822	      0.00000000	      3.88475590	     -8.07426353	      6.32705251	    -63.24017005	     -0.87652835	      1.62624843	      0.00000000	    -23.38613178	     14.01686548	    -15.20696274
      4.42000000	      3.47599246	     -4.46087577	     16.00225950	      0.48339797	      0.88959976	     -0.12481297	     16.46342925	      3.90245414	     -9.28448614	    -27.63055967	     26.15252058	      6.10880839	      0.00000000	      6.25538170	     -7.59422508	      6.44110005	    -64.66676954	      1.04838861	      2.01264460	      0.00000000	    -23.19920270	     13.85707069	    -14.70691084
      4.43000000	      3.40796249	     -4.26788742	     16.15365318	      0.49891934	      0.89409450	     -0.12470559	     14.39724769	      4.12641502	     -9.34111026	    -25.80333631	     26.28757082	      6.22955912	      0.00000000	      8.41167874	     -6.90345055	      6.27829676	    -65.55791385	      2.93457098	      2.39907288	      0.00000000	    -23.05149720	     13.42343813	    -14.13761575
      4.44000000	      3.28977055	     -3.90460498	     16.14765389	      0.51448827	      0.89856644	     -0.12444912	     12.28546556	      4.23613759	     -9.09251398	    -23.86314613	     26.27177782	      6.15934241	      0.00000000	     10.37930780	     -6.03499779	      5.85399506	    -65.94554405	      4.72077513	      2.77184726	      0.00000000	    -22.92401630	     12.73076651	    -13.45175281
      4.45000000	      3.19541308	     -3.48296125	     16.06354957	      0.53010708	      0.90293019	     -0.12408299	     10.05243394	      4.36505303	     -8.51512605	    -21.74431151	     25.98407262	      5.68108311	      0.00000000	     12.14937588	     -5.14961135	      5.24705314	    -65.89236482	      6.42677974	      3.08409194	      0.00000000	    -22.85724661	     11.95142315	    -12.69877785
      4.46000000	      3.04993357	     -2.91968285	     15.87421885	      0.54574494	      0.90702984	     -0.12362068	      7.82126578	      4.34227972	     -7.74821291	    -19.58775064	     25.64534607	      5.11474153	      0.00000000	     13.76241180	     -4.12510245	      4.45757699	    -65.40075292	      7.99248186	      3.32295361	      0.00000000	    -22.79294330	     10.96656620	    -11.92124591
      4.47000000	      2.89244179	     -2.29617296	     15.65356100	      0.56135937	      0.91076774	     -0.12314613	      5.57292338	      4.24523326	     -6.88107672	    -17.37768681	     25.19957221	      4.32821452	      0.00000000	     15.23917576	     -3.05114099	      3.57840996	    -64.52882362	      9.44578670	      3.47232900	      0.00000000	    -22.74978026	      9.91036969	    -11.12691692
      4.48000000	      2.72222700	     -1.64875345	     15.41520117	      0.57693030	      0.91403979	     -0.12268644	      3.34630147	      4.08856739	     -6.03902845	    -15.16326178	     24.69909348	      3.44125915	      0.00000000	     16.60668669	     -1.96323005	      2.64712935	    -63.31533235	     10.80397164	      3.56578667	      0.00000000	    -22.71652635	      8.83272194	    -10.34774626
      4.49000000	      2.50332015	     -1.01913867	     15.19848926	      0.59243224	      0.91672327	     -0.12229311	      1.20984861	      3.90126708	     -5.33085005	    -12.97615949	     24.11054930	      2.43696059	      0.00000000	     17.93386773	     -0.87604723	      1.73518187	    -61.79842532	     12.04007150	      3.61898849	      0.00000000	    -22.63450052	      7.77675418	     -9.64659155
      4.50000000	      2.35426389	     -0.44391922	     14.93681528	      0.60788388	      0.91889357	     -0.12193495	     -0.89341049	      3.72820688	     -4.98997234	    -10.92713977	     23.78963098	      1.93096916	      0.00000000	     19.09837756	      0.11131374	      0.79561311	    -60.00245468	     13.26117659	      3.69048068	      0.00000000	    -22.64497764	      6.81835490	     -8.89476697
      4.51000000	      2.15893287	      0.04894862	     14.72713154	      0.62324970	      0.92040517	     -0.12166305	     -2.88830567	      3.62628339	     -4.75474439	     -8.91708726	     23.24479957	      1.10432190	      0.00000000	     20.25960629	      1.04631880	     -0.02869878	    -57.96346638	     14.29064228	      3.77019768	      0.00000000	    -22.59115552	      5.96096981	     -8.24769000
      4.52000000	      2.04538501	      0.43133201	     14.49320321	      0.63854302	      0.92139384	     -0.12145593	     -4.81776272	      3.62125618	     -4.96485427	     -7.11111363	     22.98022965	      0.83057431	      0.00000000	     21.27347334	      1.84408799	     -0.77777938	    -55.69620308	     15.26981211	      3.92490080	      0.00000000	    -22.63028915	      5.27279552	     -7.54841379
